<svg version="1.1" id="Layer_1" xmlns="http://www.w3.org/2000/svg" xmlns:xlink="http://www.w3.org/1999/xlink" x="0px" y="0px"
	 width="100%" viewBox="0 0 128 128" enable-background="new 0 0 128 128" xml:space="preserve">
<path fill="#000000" opacity="1.000000" stroke="none" 
	d="
M87.000000,129.000000 
	C59.000000,129.000000 31.499855,128.961411 4.000246,129.065094 
	C1.499597,129.074509 0.930376,128.499771 0.935936,125.999855 
	C1.026385,85.333397 1.026381,44.666611 0.935937,4.000143 
	C0.930377,1.500242 1.500242,0.930377 4.000143,0.935937 
	C44.666611,1.026383 85.333397,1.026383 125.999855,0.935936 
	C128.499771,0.930377 129.069626,1.500242 129.064072,4.000143 
	C128.973618,44.666611 128.973618,85.333397 129.064072,125.999855 
	C129.069626,128.499771 128.503403,129.096222 125.999229,129.067673 
	C113.167557,128.921432 100.333336,129.000000 87.000000,129.000000 
z"/>
<path fill="#1D2123" opacity="1.000000" stroke="none" 
	d="
M26.010874,85.809448 
	C26.010931,71.192070 25.982508,57.049202 26.020765,42.906513 
	C26.047674,32.959129 32.972675,26.045053 42.932812,26.020502 
	C57.741055,25.984005 72.549591,25.973673 87.357750,26.024626 
	C96.988235,26.057762 103.945717,33.041889 103.976280,42.698238 
	C104.023682,57.672810 104.035255,72.647835 103.971313,87.622284 
	C103.931549,96.935440 96.890427,103.935371 87.543327,103.972893 
	C72.901611,104.031670 58.259480,103.999672 43.617546,103.985550 
	C32.730606,103.975052 26.120800,97.313782 26.010874,85.809448 
z"/>
<path fill="#F5F5F5" opacity="1.000000" stroke="none" 
	d="
M33.718536,64.999863 
	C33.719662,57.668533 33.638657,50.835922 33.744995,44.006229 
	C33.851501,37.165760 37.072128,33.952896 43.877934,33.822132 
	C48.707642,33.729340 53.545509,33.697025 58.371426,33.869835 
	C63.591328,34.056755 66.880486,36.915501 67.449966,42.011753 
	C67.854843,45.634991 67.613121,49.328926 67.691605,52.990635 
	C67.765396,56.433292 65.171776,55.308029 63.418228,55.435867 
	C61.624359,55.566647 59.501289,55.889660 59.818161,52.892891 
	C59.870419,52.398651 59.830395,51.893871 59.822224,51.394138 
	C59.663517,41.691402 59.663189,41.691406 49.635597,41.691563 
	C41.536297,41.691689 41.536156,41.691689 41.536171,49.925327 
	C41.536190,61.255344 41.696396,72.588867 41.448044,83.913429 
	C41.363510,87.768219 42.671967,89.090942 46.303894,88.542061 
	C46.792572,88.468208 47.302483,88.545563 47.801849,88.530029 
	C51.444679,88.416718 55.839787,89.520897 58.534992,87.863136 
	C61.731468,85.897041 59.541794,81.126762 59.715260,77.608688 
	C59.843460,75.008606 60.864235,74.400414 63.031792,74.747406 
	C64.865433,75.040939 67.781624,73.494308 67.686790,77.317665 
	C67.678528,77.650650 67.685127,77.984161 67.691353,78.317314 
	C67.949768,92.154259 68.134140,97.052803 50.212009,96.464058 
	C34.898029,95.960983 33.718632,95.203110 33.718548,79.995651 
	C33.718521,75.163719 33.718540,70.331795 33.718536,64.999863 
z"/>
<path fill="#FAFAFA" opacity="1.000000" stroke="none" 
	d="
M80.394531,68.969200 
	C71.634987,68.969124 63.305874,68.810440 54.988079,69.047981 
	C51.708290,69.141647 50.903168,68.179886 50.824249,64.938164 
	C50.736629,61.338951 52.230412,60.970554 55.187614,61.017387 
	C64.600555,61.166458 74.017349,61.072598 84.048798,59.999622 
	C82.366676,58.501003 80.810570,56.821800 78.976067,55.541538 
	C75.211746,52.914513 76.183533,50.786358 79.211578,48.365860 
	C80.579529,47.272381 81.381470,46.661385 82.848679,48.213322 
	C86.506462,52.082314 90.449005,55.685978 94.039635,59.613384 
	C97.177330,63.045383 97.222565,66.933006 94.096954,70.382858 
	C90.524780,74.325584 86.544807,77.896439 82.914284,81.789513 
	C80.442734,84.439804 79.566269,81.714333 78.280357,80.616631 
	C76.818192,79.368462 74.882500,78.124168 77.512787,75.984703 
	C79.311325,74.521782 80.870079,72.755165 82.468704,71.060814 
	C82.946136,70.554787 84.133659,69.990768 83.240280,69.177544 
	C82.766258,68.746056 81.653763,69.015968 80.394531,68.969200 
z"/>
</svg>